<?xml version="1.0" encoding="UTF-8"?>
<!--Generator: Apple Native CoreSVG 175.5-->
<!DOCTYPE svg
PUBLIC "-//W3C//DTD SVG 1.1//EN"
       "http://www.w3.org/Graphics/SVG/1.1/DTD/svg11.dtd">
<svg version="1.1" xmlns="http://www.w3.org/2000/svg" xmlns:xlink="http://www.w3.org/1999/xlink" width="3300" height="2200">
 <!--glyph: "uni100926.medium", point size: 100.0, font version: "18.0d12e2", template writer version: "101"-->
 <style>.monochrome-0 {fill:#000000}

.SFSymbolsPreview000000 {fill:#000000;opacity:1.0}
</style>
 <g id="Notes">
  <rect height="2200" id="artboard" style="fill:white;opacity:1" width="3300" x="0" y="0"/>
  <line style="fill:none;stroke:black;opacity:1;stroke-width:0.5;" x1="263" x2="3036" y1="292" y2="292"/>
  <text style="stroke:none;fill:black;font-family:sans-serif;font-size:13;font-weight:bold;" transform="matrix(1 0 0 1 263 322)">Weight/Scale Variations</text>
  <text style="stroke:none;fill:black;font-family:sans-serif;font-size:13;text-anchor:middle;" transform="matrix(1 0 0 1 559.711 322)">Ultralight</text>
  <text style="stroke:none;fill:black;font-family:sans-serif;font-size:13;text-anchor:middle;" transform="matrix(1 0 0 1 856.422 322)">Thin</text>
  <text style="stroke:none;fill:black;font-family:sans-serif;font-size:13;text-anchor:middle;" transform="matrix(1 0 0 1 1153.13 322)">Light</text>
  <text style="stroke:none;fill:black;font-family:sans-serif;font-size:13;text-anchor:middle;" transform="matrix(1 0 0 1 1449.84 322)">Regular</text>
  <text style="stroke:none;fill:black;font-family:sans-serif;font-size:13;text-anchor:middle;" transform="matrix(1 0 0 1 1746.56 322)">Medium</text>
  <text style="stroke:none;fill:black;font-family:sans-serif;font-size:13;text-anchor:middle;" transform="matrix(1 0 0 1 2043.27 322)">Semibold</text>
  <text style="stroke:none;fill:black;font-family:sans-serif;font-size:13;text-anchor:middle;" transform="matrix(1 0 0 1 2339.98 322)">Bold</text>
  <text style="stroke:none;fill:black;font-family:sans-serif;font-size:13;text-anchor:middle;" transform="matrix(1 0 0 1 2636.69 322)">Heavy</text>
  <text style="stroke:none;fill:black;font-family:sans-serif;font-size:13;text-anchor:middle;" transform="matrix(1 0 0 1 2933.4 322)">Black</text>
  <line style="fill:none;stroke:black;opacity:1;stroke-width:0.5;" x1="263" x2="3036" y1="1903" y2="1903"/>
  <g transform="matrix(1 0 0 1 263 1933)">
   <path d="M9.24805 0.830078C13.5547 0.830078 17.1387-2.74414 17.1387-7.05078C17.1387-11.3574 13.5449-14.9316 9.23828-14.9316C4.94141-14.9316 1.36719-11.3574 1.36719-7.05078C1.36719-2.74414 4.95117 0.830078 9.24805 0.830078ZM9.24805-0.654297C5.70312-0.654297 2.87109-3.49609 2.87109-7.05078C2.87109-10.6055 5.69336-13.4473 9.23828-13.4473C12.793-13.4473 15.6445-10.6055 15.6445-7.05078C15.6445-3.49609 12.8027-0.654297 9.24805-0.654297ZM5.6543-7.05078C5.6543-6.62109 5.95703-6.32812 6.40625-6.32812L8.50586-6.32812L8.50586-4.20898C8.50586-3.76953 8.79883-3.4668 9.22852-3.4668C9.67773-3.4668 9.9707-3.76953 9.9707-4.20898L9.9707-6.32812L12.0898-6.32812C12.5293-6.32812 12.832-6.62109 12.832-7.05078C12.832-7.49023 12.5293-7.79297 12.0898-7.79297L9.9707-7.79297L9.9707-9.90234C9.9707-10.3516 9.67773-10.6543 9.22852-10.6543C8.79883-10.6543 8.50586-10.3516 8.50586-9.90234L8.50586-7.79297L6.40625-7.79297C5.95703-7.79297 5.6543-7.49023 5.6543-7.05078Z"/>
  </g>
  <g transform="matrix(1 0 0 1 281.867 1933)">
   <path d="M11.709 2.91016C17.1582 2.91016 21.6699-1.61133 21.6699-7.05078C21.6699-12.5 17.1484-17.0117 11.6992-17.0117C6.25977-17.0117 1.74805-12.5 1.74805-7.05078C1.74805-1.61133 6.26953 2.91016 11.709 2.91016ZM11.709 1.25C7.09961 1.25 3.41797-2.44141 3.41797-7.05078C3.41797-11.6602 7.08984-15.3516 11.6992-15.3516C16.3086-15.3516 20.0098-11.6602 20.0098-7.05078C20.0098-2.44141 16.3184 1.25 11.709 1.25ZM7.17773-7.05078C7.17773-6.57227 7.50977-6.25 8.00781-6.25L10.8789-6.25L10.8789-3.36914C10.8789-2.88086 11.2109-2.53906 11.6895-2.53906C12.1777-2.53906 12.5195-2.87109 12.5195-3.36914L12.5195-6.25L15.4004-6.25C15.8887-6.25 16.2305-6.57227 16.2305-7.05078C16.2305-7.53906 15.8887-7.88086 15.4004-7.88086L12.5195-7.88086L12.5195-10.752C12.5195-11.25 12.1777-11.5918 11.6895-11.5918C11.2109-11.5918 10.8789-11.25 10.8789-10.752L10.8789-7.88086L8.00781-7.88086C7.50977-7.88086 7.17773-7.53906 7.17773-7.05078Z"/>
  </g>
  <g transform="matrix(1 0 0 1 305.646 1933)">
   <path d="M14.9707 5.66406C21.9336 5.66406 27.6953-0.0976562 27.6953-7.05078C27.6953-14.0137 21.9238-19.7754 14.9609-19.7754C8.00781-19.7754 2.25586-14.0137 2.25586-7.05078C2.25586-0.0976562 8.01758 5.66406 14.9707 5.66406ZM14.9707 3.84766C8.93555 3.84766 4.08203-1.01562 4.08203-7.05078C4.08203-13.0957 8.92578-17.9492 14.9609-17.9492C21.0059-17.9492 25.8691-13.0957 25.8691-7.05078C25.8691-1.01562 21.0156 3.84766 14.9707 3.84766ZM9.19922-7.05078C9.19922-6.5332 9.57031-6.17188 10.1172-6.17188L14.0625-6.17188L14.0625-2.2168C14.0625-1.67969 14.4336-1.29883 14.9512-1.29883C15.4883-1.29883 15.8594-1.66992 15.8594-2.2168L15.8594-6.17188L19.8145-6.17188C20.3516-6.17188 20.7324-6.5332 20.7324-7.05078C20.7324-7.59766 20.3613-7.96875 19.8145-7.96875L15.8594-7.96875L15.8594-11.9141C15.8594-12.4609 15.4883-12.8418 14.9512-12.8418C14.4336-12.8418 14.0625-12.4609 14.0625-11.9141L14.0625-7.96875L10.1172-7.96875C9.57031-7.96875 9.19922-7.59766 9.19922-7.05078Z"/>
  </g>
  <text style="stroke:none;fill:black;font-family:sans-serif;font-size:13;font-weight:bold;" transform="matrix(1 0 0 1 263 1953)">Design Variations</text>
  <text style="stroke:none;fill:black;font-family:sans-serif;font-size:13;" transform="matrix(1 0 0 1 263 1971)">Symbols are supported in up to nine weights and three scales.</text>
  <text style="stroke:none;fill:black;font-family:sans-serif;font-size:13;" transform="matrix(1 0 0 1 263 1989)">For optimal layout with text and other symbols, vertically align</text>
  <text style="stroke:none;fill:black;font-family:sans-serif;font-size:13;" transform="matrix(1 0 0 1 263 2007)">symbols with the adjacent text.</text>
  <line style="fill:none;stroke:#00AEEF;stroke-width:0.5;opacity:1.0;" x1="776" x2="776" y1="1919" y2="1933"/>
  <g transform="matrix(1 0 0 1 776 1933)">
   <path d="M3.31055 0.15625C3.82812 0.15625 4.08203-0.0390625 4.26758-0.585938L5.52734-4.0332L11.2891-4.0332L12.5488-0.585938C12.7344-0.0390625 12.9883 0.15625 13.4961 0.15625C14.0137 0.15625 14.3457-0.15625 14.3457-0.644531C14.3457-0.810547 14.3164-0.966797 14.2383-1.17188L9.6582-13.3691C9.43359-13.9648 9.0332-14.2676 8.4082-14.2676C7.80273-14.2676 7.39258-13.9746 7.17773-13.3789L2.59766-1.16211C2.51953-0.957031 2.49023-0.800781 2.49023-0.634766C2.49023-0.146484 2.80273 0.15625 3.31055 0.15625ZM6.00586-5.51758L8.37891-12.0898L8.42773-12.0898L10.8008-5.51758Z"/>
  </g>
  <line style="fill:none;stroke:#00AEEF;stroke-width:0.5;opacity:1.0;" x1="793.197" x2="793.197" y1="1919" y2="1933"/>
  <text style="stroke:none;fill:black;font-family:sans-serif;font-size:13;font-weight:bold;" transform="matrix(1 0 0 1 776 1953)">Margins</text>
  <text style="stroke:none;fill:black;font-family:sans-serif;font-size:13;" transform="matrix(1 0 0 1 776 1971)">Leading and trailing margins on the left and right side of each symbol</text>
  <text style="stroke:none;fill:black;font-family:sans-serif;font-size:13;" transform="matrix(1 0 0 1 776 1989)">can be adjusted by modifying the x-location of the margin guidelines.</text>
  <text style="stroke:none;fill:black;font-family:sans-serif;font-size:13;" transform="matrix(1 0 0 1 776 2007)">Modifications are automatically applied proportionally to all</text>
  <text style="stroke:none;fill:black;font-family:sans-serif;font-size:13;" transform="matrix(1 0 0 1 776 2025)">scales and weights.</text>
  <g transform="matrix(1 0 0 1 1289 1933)">
   <path d="M2.8418 1.86523L4.54102 3.57422C5.40039 4.44336 6.38672 4.38477 7.31445 3.35938L18.0078-8.42773L17.041-9.4043L6.42578 2.27539C6.07422 2.67578 5.74219 2.77344 5.27344 2.30469L4.10156 1.14258C3.63281 0.683594 3.74023 0.341797 4.14062-0.0195312L15.6152-10.8203L14.6387-11.7871L3.04688-0.898438C2.06055 0.0195312 1.98242 0.996094 2.8418 1.86523ZM9.25781-16.3281C8.83789-15.918 8.80859-15.3418 9.04297-14.9512C9.27734-14.5898 9.73633-14.3555 10.3809-14.5215C11.8457-14.8633 13.3691-14.9219 14.7949-13.9844L14.209-12.5293C13.8672-11.6992 14.043-11.1133 14.5801-10.5664L16.875-8.25195C17.3633-7.76367 17.7734-7.74414 18.3398-7.8418L19.4043-8.03711L20.0684-7.36328L20.0293-6.80664C19.9902-6.30859 20.1172-5.92773 20.6055-5.44922L21.3672-4.70703C21.8457-4.22852 22.4609-4.19922 22.9297-4.66797L25.8398-7.58789C26.3086-8.05664 26.2891-8.65234 25.8105-9.13086L25.0391-9.89258C24.5605-10.3711 24.1895-10.5273 23.7109-10.4883L23.1348-10.4395L22.4902-11.0742L22.7344-12.1973C22.8613-12.7637 22.7051-13.2031 22.1191-13.7891L19.9219-15.9766C16.582-19.2969 12.1484-19.2188 9.25781-16.3281ZM10.752-15.957C13.1836-17.7344 16.4746-17.4316 18.7012-15.2051L21.1328-12.793C21.3672-12.5586 21.4062-12.373 21.3379-12.0312L21.0156-10.5469L22.5195-9.0625L23.5059-9.12109C23.7598-9.13086 23.8379-9.11133 24.0332-8.91602L24.6094-8.33984L22.168-5.89844L21.5918-6.47461C21.3965-6.66992 21.3672-6.74805 21.377-7.01172L21.4453-7.98828L19.9512-9.47266L18.4277-9.21875C18.1055-9.15039 17.959-9.17969 17.7148-9.41406L15.7129-11.416C15.459-11.6504 15.4297-11.8164 15.5859-12.1875L16.4648-14.2773C14.9023-15.7324 12.8711-16.3574 10.8398-15.7617C10.6836-15.7227 10.625-15.8496 10.752-15.957Z"/>
  </g>
  <text style="stroke:none;fill:black;font-family:sans-serif;font-size:13;font-weight:bold;" transform="matrix(1 0 0 1 1289 1953)">Exporting</text>
  <text style="stroke:none;fill:black;font-family:sans-serif;font-size:13;" transform="matrix(1 0 0 1 1289 1971)">Symbols should be outlined when exporting to ensure the</text>
  <text style="stroke:none;fill:black;font-family:sans-serif;font-size:13;" transform="matrix(1 0 0 1 1289 1989)">design is preserved when submitting to Xcode.</text>
  <text id="template-version" style="stroke:none;fill:black;font-family:sans-serif;font-size:13;text-anchor:end;" transform="matrix(1 0 0 1 3036 1933)">Template v.4.0</text>
  <text style="stroke:none;fill:black;font-family:sans-serif;font-size:13;text-anchor:end;" transform="matrix(1 0 0 1 3036 1951)">Requires Xcode 14 or greater</text>
  <text id="descriptive-name" style="stroke:none;fill:black;font-family:sans-serif;font-size:13;text-anchor:end;" transform="matrix(1 0 0 1 3036 1969)">Generated from newspaper</text>
  <text style="stroke:none;fill:black;font-family:sans-serif;font-size:13;text-anchor:end;" transform="matrix(1 0 0 1 3036 1987)">Typeset at 100 points</text>
  <text style="stroke:none;fill:black;font-family:sans-serif;font-size:13;" transform="matrix(1 0 0 1 263 726)">Small</text>
  <text style="stroke:none;fill:black;font-family:sans-serif;font-size:13;" transform="matrix(1 0 0 1 263 1156)">Medium</text>
  <text style="stroke:none;fill:black;font-family:sans-serif;font-size:13;" transform="matrix(1 0 0 1 263 1586)">Large</text>
 </g>
 <g id="Guides">
  <g id="H-reference" style="fill:#27AAE1;stroke:none;" transform="matrix(1 0 0 1 339 696)">
   <path d="M0.993654 0L3.63775 0L29.3281-67.1323L30.0303-67.1323L30.0303-70.459L28.1226-70.459ZM11.6885-24.4799L46.9815-24.4799L46.2315-26.7285L12.4385-26.7285ZM55.1196 0L57.7637 0L30.6382-70.459L29.4326-70.459L29.4326-67.1323Z"/>
  </g>
  <line id="Baseline-S" style="fill:none;stroke:#27AAE1;opacity:1;stroke-width:0.5;" x1="263" x2="3036" y1="696" y2="696"/>
  <line id="Capline-S" style="fill:none;stroke:#27AAE1;opacity:1;stroke-width:0.5;" x1="263" x2="3036" y1="625.541" y2="625.541"/>
  <g id="H-reference" style="fill:#27AAE1;stroke:none;" transform="matrix(1 0 0 1 339 1126)">
   <path d="M0.993654 0L3.63775 0L29.3281-67.1323L30.0303-67.1323L30.0303-70.459L28.1226-70.459ZM11.6885-24.4799L46.9815-24.4799L46.2315-26.7285L12.4385-26.7285ZM55.1196 0L57.7637 0L30.6382-70.459L29.4326-70.459L29.4326-67.1323Z"/>
  </g>
  <line id="Baseline-M" style="fill:none;stroke:#27AAE1;opacity:1;stroke-width:0.5;" x1="263" x2="3036" y1="1126" y2="1126"/>
  <line id="Capline-M" style="fill:none;stroke:#27AAE1;opacity:1;stroke-width:0.5;" x1="263" x2="3036" y1="1055.54" y2="1055.54"/>
  <g id="H-reference" style="fill:#27AAE1;stroke:none;" transform="matrix(1 0 0 1 339 1556)">
   <path d="M0.993654 0L3.63775 0L29.3281-67.1323L30.0303-67.1323L30.0303-70.459L28.1226-70.459ZM11.6885-24.4799L46.9815-24.4799L46.2315-26.7285L12.4385-26.7285ZM55.1196 0L57.7637 0L30.6382-70.459L29.4326-70.459L29.4326-67.1323Z"/>
  </g>
  <line id="Baseline-L" style="fill:none;stroke:#27AAE1;opacity:1;stroke-width:0.5;" x1="263" x2="3036" y1="1556" y2="1556"/>
  <line id="Capline-L" style="fill:none;stroke:#27AAE1;opacity:1;stroke-width:0.5;" x1="263" x2="3036" y1="1485.54" y2="1485.54"/>
  <line id="left-margin-Ultralight-S" style="fill:none;stroke:#00AEEF;stroke-width:0.5;opacity:1.0;" x1="509.57" x2="509.57" y1="600.785" y2="720.121"/>
  <line id="right-margin-Ultralight-S" style="fill:none;stroke:#00AEEF;stroke-width:0.5;opacity:1.0;" x1="609.852" x2="609.852" y1="600.785" y2="720.121"/>
  <line id="left-margin-Regular-S" style="fill:none;stroke:#00AEEF;stroke-width:0.5;opacity:1.0;" x1="1395.89" x2="1395.89" y1="600.785" y2="720.121"/>
  <line id="right-margin-Regular-S" style="fill:none;stroke:#00AEEF;stroke-width:0.5;opacity:1.0;" x1="1503.8" x2="1503.8" y1="600.785" y2="720.121"/>
  <line id="left-margin-Black-S" style="fill:none;stroke:#00AEEF;stroke-width:0.5;opacity:1.0;" x1="2874.86" x2="2874.86" y1="600.785" y2="720.121"/>
  <line id="right-margin-Black-S" style="fill:none;stroke:#00AEEF;stroke-width:0.5;opacity:1.0;" x1="2991.94" x2="2991.94" y1="600.785" y2="720.121"/>
 </g>
 <g id="Symbols">
  <g id="Black-S" transform="matrix(1 0 0 1 2874.86 696)">
   <path class="monochrome-0 SFSymbolsPreview000000" d="M9.76562-7.08008C9.76562 2.05078 16.6504 8.1543 27.002 8.1543L92.0898 8.1543C101.66 8.1543 107.324 2.49023 107.324-7.08008L107.324-63.3301C107.324-72.9004 101.66-78.5645 92.0898-78.5645L45.3125-78.5645C35.7422-78.5645 30.0781-72.9004 30.0781-63.3301L30.0781-51.8066L25-51.8066C15.4297-51.8066 9.76562-46.1426 9.76562-36.5723ZM44.0918-6.00586C44.1895-6.34766 44.2383-6.5918 44.2383-7.08008L44.2383-61.084C44.2383-63.3301 45.1172-64.4043 47.5586-64.4043L89.8438-64.4043C92.2852-64.4043 93.1641-63.3301 93.1641-61.084L93.1641-9.32617C93.1641-7.08008 92.2852-6.00586 89.8438-6.00586ZM23.9258-9.32617L23.9258-34.3262C23.9258-36.3281 25.2441-37.6465 27.2461-37.6465L30.0781-37.6465L30.0781-9.32617C30.0781-7.32422 28.8574-6.00586 27.002-6.00586C25.1465-6.00586 23.9258-7.32422 23.9258-9.32617ZM54.5898-14.3555L62.2559-14.3555C65.4785-14.3555 67.5293-16.4062 67.5293-19.6289L67.5293-27.3926C67.5293-30.5664 65.4785-32.6172 62.2559-32.6172L54.5898-32.6172C51.3672-32.6172 49.3164-30.5664 49.3164-27.3926L49.3164-19.6289C49.3164-16.4062 51.3672-14.3555 54.5898-14.3555ZM52.8809-49.6094L84.5215-49.6094C86.4746-49.6094 88.0371-51.1719 88.0371-53.125C88.0371-55.0781 86.5234-56.5918 84.5215-56.5918L52.8809-56.5918C50.8789-56.5918 49.3652-55.0781 49.3652-53.125C49.3652-51.1719 50.9277-49.6094 52.8809-49.6094ZM52.8809-37.6465L84.5215-37.6465C86.5234-37.6465 88.0371-39.1602 88.0371-41.1133C88.0371-43.0664 86.4746-44.6289 84.5215-44.6289L52.8809-44.6289C50.9277-44.6289 49.3652-43.0664 49.3652-41.1133C49.3652-39.1602 50.8789-37.6465 52.8809-37.6465ZM73.8281-14.3555L84.5215-14.3555C86.4746-14.3555 87.9883-15.8691 87.9883-17.8223C87.9883-19.7754 86.4746-21.3379 84.5215-21.3379L73.8281-21.3379C71.875-21.3379 70.3125-19.7754 70.3125-17.8223C70.3125-15.8691 71.8262-14.3555 73.8281-14.3555ZM73.8281-25.6836L84.5215-25.6836C86.4746-25.6836 87.9883-27.1973 87.9883-29.1016C87.9883-31.1035 86.4746-32.6172 84.5215-32.6172L73.8281-32.6172C71.8262-32.6172 70.3125-31.1035 70.3125-29.1016C70.3125-27.1973 71.875-25.6836 73.8281-25.6836Z"/>
  </g>
  <g id="Regular-S" transform="matrix(1 0 0 1 1395.89 696)">
   <path class="monochrome-0 SFSymbolsPreview000000" d="M9.76562-6.44531C9.76562 1.80664 13.7695 5.9082 22.0703 5.9082L85.6934 5.9082C94.043 5.9082 98.1445 1.85547 98.1445-6.34766L98.1445-64.1602C98.1445-72.3633 94.043-76.416 85.6934-76.416L39.7461-76.416C31.3965-76.416 27.2949-72.3633 27.2949-64.1602L27.2949-46.7773L18.0176-46.7773C12.8418-46.7773 9.76562-43.9453 9.76562-39.1113ZM33.2031-1.12305C33.9355-2.83203 34.3262-4.73633 34.3262-6.88477L34.3262-63.7695C34.3262-67.4805 36.3281-69.3848 39.8438-69.3848L85.5957-69.3848C89.1113-69.3848 91.1133-67.4805 91.1133-63.7695L91.1133-6.73828C91.1133-3.02734 89.1113-1.12305 85.5957-1.12305ZM16.7969-6.39648L16.7969-37.6953C16.7969-38.9648 17.5781-39.7461 18.8477-39.7461L27.2949-39.7461L27.2949-6.39648C27.2949-3.32031 24.9512-1.12305 22.0703-1.12305C19.1406-1.12305 16.7969-3.4668 16.7969-6.39648ZM45.9961-12.6465L55.8594-12.6465C58.9355-12.6465 60.7422-14.4531 60.7422-17.4805L60.7422-26.8066C60.7422-29.834 58.9355-31.6406 55.8594-31.6406L45.9961-31.6406C42.9688-31.6406 41.1621-29.834 41.1621-26.8066L41.1621-17.4805C41.1621-14.4531 42.9688-12.6465 45.9961-12.6465ZM43.8965-53.0762L81.5918-53.0762C83.1055-53.0762 84.2285-54.248 84.2285-55.7617C84.2285-57.2266 83.1055-58.3496 81.5918-58.3496L43.8965-58.3496C42.334-58.3496 41.1621-57.2266 41.1621-55.7617C41.1621-54.248 42.334-53.0762 43.8965-53.0762ZM43.8965-39.7461L81.5918-39.7461C83.1055-39.7461 84.2285-40.8691 84.2285-42.334C84.2285-43.8477 83.1055-45.0195 81.5918-45.0195L43.8965-45.0195C42.334-45.0195 41.1621-43.8477 41.1621-42.334C41.1621-40.8691 42.334-39.7461 43.8965-39.7461ZM67.5293-12.6465L81.5918-12.6465C83.1055-12.6465 84.2285-13.8184 84.2285-15.2344C84.2285-16.748 83.1055-17.9688 81.5918-17.9688L67.5293-17.9688C65.9668-17.9688 64.8438-16.748 64.8438-15.2344C64.8438-13.8184 65.9668-12.6465 67.5293-12.6465ZM67.5293-26.3672L81.5918-26.3672C83.1055-26.3672 84.2285-27.4902 84.2285-28.9551C84.2285-30.4688 83.1055-31.6406 81.5918-31.6406L67.5293-31.6406C65.9668-31.6406 64.8438-30.4688 64.8438-28.9551C64.8438-27.4902 65.9668-26.3672 67.5293-26.3672Z"/>
  </g>
  <g id="Ultralight-S" transform="matrix(1 0 0 1 509.57 696)">
   <path class="monochrome-0 SFSymbolsPreview000000" d="M9.76562-2.94876C9.76562 1.94287 12.4981 5.18165 17.8926 5.18165L80.5621 5.18165C87.0953 5.18165 90.5157 1.71924 90.5157-4.80372L90.5157-65.5225C90.5157-72.0454 87.0953-75.5078 80.5621-75.5078L33.7974-75.5078C27.2642-75.5078 23.7984-72.0454 23.7984-65.5225L23.7984-43.3716L15.293-43.3716C11.8428-43.3716 9.76562-41.4932 9.76562-38.294ZM23.8487 2.96384C25.3077 1.52731 26.0162-0.513217 26.0162-2.97952L26.0162-65.4043C26.0162-70.5683 28.6993-73.29 33.8951-73.29L80.4644-73.29C85.6148-73.29 88.3433-70.5683 88.3433-65.4043L88.3433-4.92189C88.3433 0.287572 85.6148 2.96384 80.4644 2.96384ZM11.9834-3.03616L11.9834-38.104C11.9834-40.0547 13.2188-41.1992 15.2603-41.1992L23.7984-41.1992L23.7984-3.03616C23.7984 0.53952 21.4092 2.96384 17.8926 2.96384C14.3726 2.96384 11.9834 0.529265 11.9834-3.03616ZM40.3653-12.9189L50.4102-12.9189C52.896-12.9189 54.521-14.5439 54.521-16.981L54.521-25.1265C54.521-27.5635 52.896-29.1885 50.4102-29.1885L40.3653-29.1885C37.9283-29.1885 36.3033-27.5635 36.3033-25.1265L36.3033-16.981C36.3033-14.5439 37.9283-12.9189 40.3653-12.9189ZM37.6299-55.3013L76.7784-55.3013C77.3838-55.3013 77.8711-55.792 77.8711-56.352C77.8711-56.9541 77.3838-57.4414 76.7784-57.4414L37.6299-57.4414C36.9756-57.4414 36.5303-56.9541 36.5303-56.352C36.5303-55.792 36.9756-55.3013 37.6299-55.3013ZM37.6299-41.1992L76.7784-41.1992C77.3838-41.1992 77.8711-41.6411 77.8711-42.2432C77.8711-42.8486 77.3838-43.294 76.7784-43.294L37.6299-43.294C36.9756-43.294 36.5303-42.8486 36.5303-42.2432C36.5303-41.6411 36.9756-41.1992 37.6299-41.1992ZM61.7168-12.9189L76.7329-12.9189C77.3384-12.9189 77.8257-13.4097 77.8257-13.9629C77.8257-14.5684 77.3384-15.0625 76.7329-15.0625L61.7168-15.0625C61.1079-15.0625 60.6206-14.5684 60.6206-13.9629C60.6206-13.4097 61.1079-12.9189 61.7168-12.9189ZM61.7168-27.0483L76.7329-27.0483C77.3384-27.0483 77.8257-27.5356 77.8257-28.1377C77.8257-28.6978 77.3384-29.1885 76.7329-29.1885L61.7168-29.1885C61.1079-29.1885 60.6206-28.6978 60.6206-28.1377C60.6206-27.5356 61.1079-27.0483 61.7168-27.0483Z"/>
  </g>
 </g>
</svg>
